<svg xmlns="http://www.w3.org/2000/svg" width="101" height="100" viewBox="0 0 101 100"><defs><style>.a{fill:#f7f7f2;}</style></defs><path class="a" d="M50.53,9.006c13.5,0,15.1.059,20.409.293a27.938,27.938,0,0,1,9.376,1.719,15.644,15.644,0,0,1,5.8,3.731,15.658,15.658,0,0,1,3.79,5.743,27.27,27.27,0,0,1,1.737,9.279c.237,5.274.3,6.857.3,20.2s-.059,14.944-.3,20.2a27.157,27.157,0,0,1-1.737,9.279,15.451,15.451,0,0,1-3.77,5.743,15.851,15.851,0,0,1-5.8,3.751,28.054,28.054,0,0,1-9.376,1.719c-5.329.234-6.928.293-20.409.293s-15.1-.059-20.409-.293a27.938,27.938,0,0,1-9.376-1.719,15.644,15.644,0,0,1-5.8-3.731,15.658,15.658,0,0,1-3.79-5.743,27.27,27.27,0,0,1-1.737-9.279c-.237-5.274-.3-6.857-.3-20.2s.059-14.944.3-20.2a27.157,27.157,0,0,1,1.737-9.279,15.451,15.451,0,0,1,3.77-5.743,15.851,15.851,0,0,1,5.8-3.751A28.055,28.055,0,0,1,30.12,9.3C35.43,9.064,37.029,9.006,50.53,9.006ZM50.53,0C36.812,0,35.094.059,29.706.293A37.256,37.256,0,0,0,17.449,2.618,24.69,24.69,0,0,0,8.487,8.4a24.48,24.48,0,0,0-5.842,8.849A36.318,36.318,0,0,0,.3,29.381C.059,34.733,0,36.433,0,50.01S.059,65.286.3,70.619A36.213,36.213,0,0,0,2.645,82.751a24.385,24.385,0,0,0,5.842,8.869,24.727,24.727,0,0,0,8.941,5.763,37.364,37.364,0,0,0,12.257,2.325c5.389.234,7.106.293,20.824.293s15.435-.059,20.824-.293a37.256,37.256,0,0,0,12.257-2.325,24.727,24.727,0,0,0,8.941-5.763,24.421,24.421,0,0,0,5.823-8.849A36.317,36.317,0,0,0,100.7,70.639c.237-5.333.3-7.033.3-20.609s-.059-15.276-.3-20.609a36.213,36.213,0,0,0-2.349-12.131A23.4,23.4,0,0,0,92.572,8.4,24.727,24.727,0,0,0,83.63,2.637,37.364,37.364,0,0,0,71.373.313C65.965.059,64.248,0,50.53,0h0Z"/><path class="a" d="M145.516,124.5a20.887,20.887,0,1,0,21.016,20.887A20.957,20.957,0,0,0,145.516,124.5Zm0,34.435a13.549,13.549,0,1,1,13.632-13.549A13.593,13.593,0,0,1,145.516,158.935Z" transform="translate(-94.968 -95.371)"/><path class="a" d="M378.2,96.7a8.1,8.1,0,1,1-8.1-8.1A8.1,8.1,0,0,1,378.2,96.7Z" transform="translate(-295.632 -70.433)"/></svg>