<svg xmlns="http://www.w3.org/2000/svg" width="100" height="100" viewBox="0 0 100 100"><defs><style>.a{fill:#f7f7f2;}</style></defs><path class="a" d="M90.625,0H9.375A9.4,9.4,0,0,0,0,9.375v81.25A9.4,9.4,0,0,0,9.375,100h81.25A9.4,9.4,0,0,0,100,90.625V9.375A9.4,9.4,0,0,0,90.625,0ZM37.5,81.25H25V37.5H37.5Zm-6.25-50A6.25,6.25,0,1,1,37.5,25,6.243,6.243,0,0,1,31.25,31.25Zm50,50H68.75v-25a6.25,6.25,0,0,0-12.5,0v25H43.75V37.5h12.5v7.754c2.578-3.535,6.523-7.754,10.938-7.754,7.773,0,14.063,6.992,14.063,15.625Z"/></svg>