<svg xmlns="http://www.w3.org/2000/svg" width="123" height="100" viewBox="0 0 123 100"><defs><style>.a{fill:#f7f7f2;}</style></defs><path class="a" d="M122.9,75.827a49.727,49.727,0,0,1-14.483,3.966,25.39,25.39,0,0,0,11.1-13.966,50.711,50.711,0,0,1-16.021,6.13A25.266,25.266,0,0,0,60.5,94.986a71.587,71.587,0,0,1-52-26.394,25.3,25.3,0,0,0,7.806,33.7A25.24,25.24,0,0,1,4.872,99.144v.313a25.247,25.247,0,0,0,20.248,24.76,25.252,25.252,0,0,1-6.653.889,25.931,25.931,0,0,1-4.756-.457A25.311,25.311,0,0,0,37.273,142.2,50.575,50.575,0,0,1,5.929,153.014,50.115,50.115,0,0,1-.1,152.654,71.321,71.321,0,0,0,38.594,164c46.4,0,71.792-38.486,71.792-71.851,0-1.106-.024-2.187-.072-3.269A50.808,50.808,0,0,0,122.9,75.827Z" transform="translate(0.1 -64)"/></svg>